<svg width="1200" height="900" viewBox="0 0 1200 900" fill="none" xmlns="http://www.w3.org/2000/svg">
  <rect width="1200" height="900" rx="56" fill="url(#bg)"/>
  <circle cx="950" cy="180" r="150" fill="url(#glow)" fill-opacity="0.9"/>
  <circle cx="260" cy="710" r="220" fill="#F9DCCB" fill-opacity="0.62"/>
  <rect x="120" y="126" width="960" height="648" rx="42" fill="#FCFBFF" fill-opacity="0.38" stroke="white" stroke-opacity="0.52" stroke-width="2"/>
  <rect x="186" y="210" width="828" height="472" rx="36" fill="#141A28" fill-opacity="0.78"/>
  <rect x="228" y="250" width="414" height="24" rx="12" fill="#F4F7FF" fill-opacity="0.68"/>
  <rect x="228" y="300" width="210" height="18" rx="9" fill="#D4DCF4" fill-opacity="0.6"/>
  <rect x="740" y="264" width="176" height="176" rx="30" fill="#E1C7BD" fill-opacity="0.95"/>
  <rect x="774" y="302" width="108" height="108" rx="54" fill="#FFF4EC" fill-opacity="0.72"/>
  <rect x="230" y="512" width="564" height="24" rx="12" fill="#F4F7FF" fill-opacity="0.58"/>
  <rect x="230" y="558" width="438" height="18" rx="9" fill="#D4DCF4" fill-opacity="0.46"/>
  <rect x="230" y="602" width="300" height="18" rx="9" fill="#D4DCF4" fill-opacity="0.32"/>
  <text x="230" y="404" fill="#FFFFFF" fill-opacity="0.94" font-size="68" font-family="-apple-system, BlinkMacSystemFont, 'Segoe UI', sans-serif" letter-spacing="-2">movie night</text>
  <defs>
    <linearGradient id="bg" x1="96" y1="64" x2="1080" y2="848" gradientUnits="userSpaceOnUse">
      <stop stop-color="#EAF4FF"/>
      <stop offset="0.46" stop-color="#D9E7FF"/>
      <stop offset="1" stop-color="#FFF1EA"/>
    </linearGradient>
    <radialGradient id="glow" cx="0" cy="0" r="1" gradientUnits="userSpaceOnUse" gradientTransform="translate(950 180) rotate(90) scale(150)">
      <stop stop-color="#FFFFFF"/>
      <stop offset="1" stop-color="#FFFFFF" stop-opacity="0"/>
    </radialGradient>
  </defs>
</svg>
